<svg width="105" height="68" viewBox="0 0 105 68" fill="none" xmlns="http://www.w3.org/2000/svg">
<g id="&#240;&#159;&#166;&#134; icon &#34;Car&#34;">
<path id="Vector" d="M101.82 20.478H89.6736L86.2977 13.2235C82.8284 5.76506 74.5488 0.946777 65.202 0.946777H39.436C30.0912 0.946777 21.8096 5.76506 18.3383 13.2235L14.9623 20.478H2.81783C1.23332 20.478 0.0708108 21.758 0.456286 23.0781L1.67358 27.2634C1.94341 28.1946 2.91724 28.8485 4.03512 28.8485H8.10696C5.38226 30.8941 3.62733 33.8674 3.62733 37.2191V45.5896C3.62733 48.4007 4.87708 50.938 6.87344 52.9016V62.3306C6.87344 65.412 9.78074 67.911 13.3657 67.911H19.8579C23.4428 67.911 26.3501 65.412 26.3501 62.3306V56.7503H78.2879V62.3306C78.2879 65.412 81.1952 67.911 84.7801 67.911H91.2723C94.8572 67.911 97.7645 65.412 97.7645 62.3306V52.9016C99.7609 50.9397 101.011 48.4024 101.011 45.5896V37.2191C101.011 33.8674 99.2557 30.8941 96.5331 28.8485H100.605C101.723 28.8485 102.697 28.1946 102.966 27.2634L104.184 23.0781C104.567 21.758 103.405 20.478 101.82 20.478ZM30.3935 17.3687C31.8726 14.1914 35.4534 12.1075 39.436 12.1075H65.202C69.1846 12.1075 72.7654 14.1914 74.2444 17.3687L78.2879 26.0584H26.3501L30.3935 17.3687ZM19.8579 45.5547C15.9626 45.5547 13.3657 43.3295 13.3657 39.9918C13.3657 36.654 15.9626 34.4289 19.8579 34.4289C23.7532 34.4289 29.5962 39.4355 29.5962 42.7732C29.5962 46.111 23.7532 45.5547 19.8579 45.5547ZM84.7801 45.5547C80.8848 45.5547 75.0418 46.111 75.0418 42.7732C75.0418 39.4355 80.8848 34.4289 84.7801 34.4289C88.6754 34.4289 91.2723 36.654 91.2723 39.9918C91.2723 43.3295 88.6754 45.5547 84.7801 45.5547Z" fill="#FCF9F9"/>
</g>
</svg>
